<svg xmlns="http://www.w3.org/2000/svg" viewBox="0 0 1600 900" width="1600" height="900" role="img" aria-label="Bannière branding Plinkk">
  <defs>
    <linearGradient id="brandGradientLong" x1="0%" y1="100%" x2="100%" y2="0%">
      <stop offset="0" stop-color="#6366f1"/>
      <stop offset="0.3" stop-color="#d946ef"/>
      <stop offset="1" stop-color="#10b981"/>
    </linearGradient>
    
    <symbol id="sparkle-cross" viewBox="0 0 14 14">
        <g stroke="#ffffff" stroke-linecap="round" stroke-width="1.5">
            <line x1="7" y1="1" x2="7" y2="13"/>
            <line x1="1" y1="7" x2="13" y2="7"/>
        </g>
    </symbol>
  </defs>

  <rect width="1600" height="900" fill="#0b1220"/>

  <g opacity="0.4">
    <circle cx="0" cy="900" r="700" fill="none" stroke="url(#brandGradientLong)" stroke-width="30"/>
    <circle cx="0" cy="900" r="850" fill="none" stroke="url(#brandGradientLong)" stroke-width="8" opacity="0.6"/>
     <circle cx="1600" cy="0" r="400" fill="none" stroke="url(#brandGradientLong)" stroke-width="15" opacity="0.3"/>
  </g>

  <g id="star-field" fill="#ffffff">
    <circle cx="200" cy="150" r="2.5" opacity="0.8"/>
    <circle cx="800" cy="100" r="1.5" opacity="0.6"/>
    <circle cx="1400" cy="250" r="2" opacity="0.9"/>
    <circle cx="150" cy="700" r="1.5" opacity="0.7"/>
    <circle cx="600" cy="800" r="2.5" opacity="0.85"/>
    <circle cx="1200" cy="650" r="1.5" opacity="0.6"/>
    <circle cx="1500" cy="850" r="2" opacity="0.9"/>
    <circle cx="950" cy="450" r="1" opacity="0.5"/>
    <circle cx="350" cy="400" r="1.8" opacity="0.75"/>
    <circle cx="50" cy="50" r="2" opacity="0.8"/>
    <circle cx="1550" cy="50" r="1.5" opacity="0.7"/>
    
    <use href="#sparkle-cross" x="450" y="120" width="18" height="18" opacity="0.9"/>
    <use href="#sparkle-cross" x="1300" y="180" width="14" height="14" opacity="0.8"/>
    <use href="#sparkle-cross" x="250" y="750" width="20" height="20" opacity="0.95"/>
    <use href="#sparkle-cross" x="1050" y="700" width="16" height="16" opacity="0.85"/>
    <use href="#sparkle-cross" x="80" y="350" width="12" height="12" opacity="0.7"/>
    <use href="#sparkle-cross" x="1500" y="500" width="15" height="15" opacity="0.9"/>
  </g>
</svg>