<svg xmlns="http://www.w3.org/2000/svg" viewBox="0 0 64 64" width="256" height="256" role="img" aria-label="Icône gemme branding">
  <defs>
    <linearGradient id="brand" x1="8" y1="56" x2="56" y2="8" gradientUnits="userSpaceOnUse">
      <stop offset="0" stop-color="#6366f1"/>
      <stop offset="0.5" stop-color="#d946ef"/>
      <stop offset="1" stop-color="#10b981"/>
    </linearGradient>
  </defs>
  
  <circle cx="32" cy="32" r="28" fill="#0b1220"/>
  
  <g fill="none" stroke="url(#brand)" stroke-width="2.5" stroke-linecap="round" stroke-linejoin="round">
    <path d="M20 16 H44 L54 26 L32 52 L10 26 Z"/>
    <path d="M10 26 H54 M20 16 L10 26 M44 16 L54 26 M32 52 L20 16 M32 52 L44 16"/>
  </g>

  <g id="stars">
      <circle cx="14" cy="20" r="0.9" fill="#ffffff" opacity="0.95"/>
      <circle cx="52" cy="18" r="0.8" fill="#ffffff" opacity="0.9"/>
      <circle cx="48" cy="48" r="0.8" fill="#ffffff" opacity="0.85"/>
      <g opacity="0.9" stroke="#ffffff" stroke-linecap="round" stroke-width="1">
        <line x1="8.5" y1="38.5" x2="11.5" y2="38.5"/>
        <line x1="10" y1="37" x2="10" y2="40"/>
      </g>
       <g opacity="0.85" stroke="#ffffff" stroke-linecap="round" stroke-width="0.9">
        <line x1="40" y1="10.5" x2="42.2" y2="10.5"/>
        <line x1="41.1" y1="9.4" x2="41.1" y2="11.6"/>
      </g>
  </g>
</svg>