<svg xmlns="http://www.w3.org/2000/svg" width="1280" height="800" viewBox="0 0 1280 800">
  <defs>
    <linearGradient id="g" x1="0" y1="0" x2="1" y2="1">
      <stop offset="0%" stop-color="#4338CA"/>
      <stop offset="50%" stop-color="#A21CAF"/>
      <stop offset="100%" stop-color="#E11D48"/>
    </linearGradient>
    <filter id="s" x="-20%" y="-20%" width="140%" height="140%">
      <feDropShadow dx="0" dy="12" stdDeviation="18" flood-color="#000" flood-opacity="0.35"/>
    </filter>
  </defs>
  <rect width="1280" height="800" fill="#0B1020"/>
  <rect x="80" y="60" rx="18" ry="18" width="1120" height="680" fill="#0f172a" filter="url(#s)"/>
  <!-- header -->
  <rect x="80" y="60" width="1120" height="64" rx="18" ry="18" fill="#111827"/>
  <rect x="110" y="88" width="160" height="12" rx="6" fill="#E5E7EB" opacity="0.6"/>
  <!-- left sidebar -->
  <rect x="100" y="144" width="260" height="44" rx="10" fill="#111827"/>
  <rect x="100" y="200" width="260" height="44" rx="10" fill="#111827"/>
  <rect x="100" y="256" width="260" height="44" rx="10" fill="#111827"/>
  <rect x="100" y="312" width="260" height="44" rx="10" fill="#111827"/>
  <rect x="100" y="368" width="260" height="44" rx="10" fill="#111827"/>
  <!-- main editor canvas -->
  <rect x="380" y="160" width="790" height="520" rx="16" fill="#0b1324" stroke="#1f2937"/>
  <!-- gradient preview -->
  <rect x="410" y="190" width="320" height="220" rx="14" fill="url(#g)" opacity="0.6"/>
  <!-- controls -->
  <rect x="760" y="190" width="380" height="44" rx="10" fill="#111827"/>
  <rect x="760" y="244" width="380" height="44" rx="10" fill="#111827"/>
  <rect x="760" y="298" width="380" height="44" rx="10" fill="#111827"/>
  <rect x="760" y="352" width="380" height="44" rx="10" fill="#111827"/>
  <!-- save status bar -->
  <rect x="380" y="700" width="790" height="24" rx="8" fill="#111827"/>
  <circle cx="400" cy="712" r="6" fill="#34D399"/>
  <rect x="416" y="704" width="130" height="14" rx="7" fill="#E5E7EB" opacity="0.5"/>
</svg>
