<svg xmlns="http://www.w3.org/2000/svg" width="1280" height="800" viewBox="0 0 1280 800">
  <defs>
    <linearGradient id="c" x1="0" y1="0" x2="1" y2="1">
      <stop offset="0%" stop-color="#0EA5E9"/>
      <stop offset="100%" stop-color="#22D3EE"/>
    </linearGradient>
    <filter id="s" x="-20%" y="-20%" width="140%" height="140%">
      <feDropShadow dx="0" dy="12" stdDeviation="18" flood-color="#000" flood-opacity="0.35"/>
    </filter>
  </defs>
  <rect width="1280" height="800" fill="#07111F"/>
  <rect x="120" y="80" width="1040" height="640" rx="22" fill="#0b1324" filter="url(#s)"/>
  <circle cx="240" cy="220" r="60" fill="#111827"/>
  <rect x="310" y="190" width="200" height="16" rx="8" fill="#E5E7EB" opacity="0.6"/>
  <rect x="310" y="214" width="280" height="14" rx="7" fill="#E5E7EB" opacity="0.4"/>
  <!-- chips -->
  <rect x="180" y="300" width="140" height="28" rx="14" fill="#0f172a" stroke="#1f2937"/>
  <rect x="330" y="300" width="120" height="28" rx="14" fill="#0f172a" stroke="#1f2937"/>
  <rect x="460" y="300" width="160" height="28" rx="14" fill="#0f172a" stroke="#1f2937"/>
  <!-- links cards -->
  <rect x="180" y="360" width="920" height="68" rx="16" fill="#0f172a" stroke="#1f2937"/>
  <rect x="180" y="438" width="920" height="68" rx="16" fill="#0f172a" stroke="#1f2937"/>
  <rect x="180" y="516" width="920" height="68" rx="16" fill="#0f172a" stroke="#1f2937"/>
  <!-- status chip -->
  <rect x="180" y="620" width="140" height="28" rx="14" fill="#0f172a" stroke="#1f2937"/>
  <circle cx="197" cy="634" r="6" fill="#34D399"/>
  <rect x="210" y="628" width="90" height="12" rx="6" fill="#E5E7EB" opacity="0.5"/>
</svg>
