<?xml version="1.0" encoding="UTF-8"?>
<svg xmlns="http://www.w3.org/2000/svg" viewBox="0 0 64 64" width="256" height="256" role="img" aria-label="Plinkk logo">
  <defs>
    <!-- Background gradient -->
    <linearGradient id="g" x1="8" y1="56" x2="56" y2="8" gradientUnits="userSpaceOnUse">
      <stop offset="0" stop-color="#6366f1"/>
      <stop offset="0.5" stop-color="#d946ef"/>
      <stop offset="1" stop-color="#10b981"/>
    </linearGradient>
    <!-- Subtle ring gradient -->
    <linearGradient id="ring" x1="16" y1="48" x2="48" y2="16" gradientUnits="userSpaceOnUse">
      <stop offset="0" stop-color="#ffffff" stop-opacity=".25"/>
      <stop offset="1" stop-color="#ffffff" stop-opacity=".6"/>
    </linearGradient>
    <!-- Glow gradient for the P -->
    <linearGradient id="pGlow" x1="20" y1="44" x2="48" y2="20" gradientUnits="userSpaceOnUse">
      <stop offset="0" stop-color="#6366f1"/>
      <stop offset="1" stop-color="#d946ef"/>
    </linearGradient>
    <!-- Soft glow filter -->
    <filter id="glow" x="-20%" y="-20%" width="140%" height="140%">
      <feGaussianBlur stdDeviation="1.6" result="b"/>
      <feMerge>
        <feMergeNode in="b"/>
        <feMergeNode in="SourceGraphic"/>
      </feMerge>
    </filter>
    <!-- Highlight -->
    <radialGradient id="hl" cx="0" cy="0" r="1" gradientUnits="userSpaceOnUse" gradientTransform="translate(22 18) rotate(45) scale(22)">
      <stop offset="0" stop-color="#ffffff" stop-opacity=".45"/>
      <stop offset=".6" stop-color="#ffffff" stop-opacity=".08"/>
      <stop offset="1" stop-color="#ffffff" stop-opacity="0"/>
    </radialGradient>
  </defs>

  <!-- Background disc -->
  <circle cx="32" cy="32" r="28" fill="url(#g)"/>
  <!-- Decorative ring and highlight -->
  <circle cx="32" cy="32" r="26.5" fill="none" stroke="url(#ring)" stroke-width="1.2"/>
  <circle cx="32" cy="32" r="28" fill="url(#hl)"/>

  <!-- Monogram P with glow -->
  <g filter="url(#glow)">
    <!-- Glowing under-stroke -->
    <path d="M22 18h14c6.6 0 12 5.4 12 12s-5.4 12-12 12H26v14" fill="none" stroke="url(#pGlow)" stroke-width="7.2" stroke-linecap="round" stroke-linejoin="round" opacity=".45"/>
    <!-- Main stroke -->
    <path d="M22 18h14c6.6 0 12 5.4 12 12s-5.4 12-12 12H26v14" fill="none" stroke="#ffffff" stroke-width="5.6" stroke-linecap="round" stroke-linejoin="round"/>
  </g>

  <!-- Spark -->
  <circle cx="46" cy="16" r="2" fill="#ffffff" opacity=".9"/>
</svg>